<svg id="MKTG_ICN_1" data-name="MKTG ICN 1" xmlns="http://www.w3.org/2000/svg" viewBox="0 0 1024 1024"><defs><style>.cls-1{fill:none;stroke:#65a637;stroke-linecap:round;stroke-linejoin:round;stroke-width:25px;}</style></defs><title>Enterprise Integration</title><circle class="cls-1" cx="512" cy="512" r="496.5"/><line class="cls-1" x1="216.5" y1="814.5" x2="797.5" y2="814.5"/><polyline class="cls-1" points="394.5 814.5 394.5 426.5 617.5 426.5 617.5 814.5"/><polyline class="cls-1" points="459.5 815.5 459.5 717.5 551.5 717.5 551.5 815.5"/><line class="cls-1" x1="259.5" y1="742.5" x2="350.5" y2="742.5"/><line class="cls-1" x1="259.5" y1="679.5" x2="350.5" y2="679.5"/><polyline class="cls-1" points="215.5 814.5 215.5 612.5 394.5 612.5"/><line class="cls-1" x1="754.5" y1="742.5" x2="663.5" y2="742.5"/><line class="cls-1" x1="754.5" y1="679.5" x2="663.5" y2="679.5"/><polyline class="cls-1" points="798.5 814.5 798.5 612.5 619.5 612.5"/><line class="cls-1" x1="461.5" y1="508.5" x2="461.5" y2="513.5"/><line class="cls-1" x1="551.5" y1="508.5" x2="551.5" y2="513.5"/><line class="cls-1" x1="461.5" y1="578.5" x2="461.5" y2="584.5"/><line class="cls-1" x1="551.5" y1="578.5" x2="551.5" y2="584.5"/><line class="cls-1" x1="461.5" y1="649.5" x2="461.5" y2="655.5"/><line class="cls-1" x1="551.5" y1="649.5" x2="551.5" y2="655.5"/><polyline class="cls-1" points="476.42 315.65 467.4 330.5 382.5 330.5"/><polyline class="cls-1" points="623.5 215.5 537.04 215.5 529.59 227.76"/><polyline class="cls-1" points="587.48 252.08 623.83 215.73 586.1 178"/><polyline class="cls-1" points="624.5 329.5 537.15 329.5 467.28 214.5 381.5 214.5"/><polyline class="cls-1" points="587.48 293.3 623.83 329.64 586.1 367.37"/></svg>